<mxfile host="app.diagrams.net" modified="2024-02-19T15:01:47.984Z" agent="Mozilla/5.0 (X11; Linux x86_64) AppleWebKit/537.36 (KHTML, like Gecko) Chrome/121.0.0.0 Safari/537.36" etag="_Jf3eFaz-G6u9NPpxlBE" version="23.1.5" type="github">
  <diagram name="Page-1" id="xXTS7xR1sBCD_lHvJiS1">
    <mxGraphModel dx="5698" dy="2203" grid="1" gridSize="10" guides="1" tooltips="1" connect="1" arrows="1" fold="1" page="1" pageScale="1" pageWidth="850" pageHeight="1100" math="0" shadow="0">
      <root>
        <mxCell id="0" />
        <mxCell id="1" parent="0" />
        <mxCell id="rcXhQWYuo-V88qk7l1yH-1" value="map_editor : MapEditor" style="swimlane;fontStyle=0;childLayout=stackLayout;horizontal=1;startSize=26;horizontalStack=0;resizeParent=1;resizeParentMax=0;resizeLast=0;collapsible=1;marginBottom=0;align=center;fontSize=14;" vertex="1" parent="1">
          <mxGeometry x="-3230" y="-970" width="160" height="56" as="geometry" />
        </mxCell>
        <mxCell id="rcXhQWYuo-V88qk7l1yH-2" value="ecos_subject : EcosSubject" style="swimlane;fontStyle=0;childLayout=stackLayout;horizontal=1;startSize=26;horizontalStack=0;resizeParent=1;resizeParentMax=0;resizeLast=0;collapsible=1;marginBottom=0;align=center;fontSize=14;" vertex="1" parent="1">
          <mxGeometry x="-3280" y="-706" width="260" height="56" as="geometry" />
        </mxCell>
        <mxCell id="rcXhQWYuo-V88qk7l1yH-3" value="EcosObserver" style="swimlane;fontStyle=0;childLayout=stackLayout;horizontal=1;startSize=26;horizontalStack=0;resizeParent=1;resizeParentMax=0;resizeLast=0;collapsible=1;marginBottom=0;align=center;fontSize=14;" vertex="1" parent="1">
          <mxGeometry x="-3245" y="-626" width="190" height="56" as="geometry" />
        </mxCell>
        <mxCell id="rcXhQWYuo-V88qk7l1yH-4" value="" style="endArrow=classic;startArrow=classic;html=1;rounded=0;" edge="1" parent="1" source="rcXhQWYuo-V88qk7l1yH-3" target="rcXhQWYuo-V88qk7l1yH-2">
          <mxGeometry width="50" height="50" relative="1" as="geometry">
            <mxPoint x="-3299" y="-566" as="sourcePoint" />
            <mxPoint x="-3249" y="-616" as="targetPoint" />
          </mxGeometry>
        </mxCell>
        <mxCell id="rcXhQWYuo-V88qk7l1yH-5" value="" style="endArrow=classic;html=1;rounded=0;" edge="1" parent="1" source="rcXhQWYuo-V88qk7l1yH-1" target="rcXhQWYuo-V88qk7l1yH-2">
          <mxGeometry width="50" height="50" relative="1" as="geometry">
            <mxPoint x="-3220" y="-904" as="sourcePoint" />
            <mxPoint x="-3170" y="-954" as="targetPoint" />
          </mxGeometry>
        </mxCell>
        <mxCell id="rcXhQWYuo-V88qk7l1yH-6" value="command_queue : Queue[Command]" style="swimlane;fontStyle=0;childLayout=stackLayout;horizontal=1;startSize=26;horizontalStack=0;resizeParent=1;resizeParentMax=0;resizeLast=0;collapsible=1;marginBottom=0;align=center;fontSize=14;" vertex="1" parent="1">
          <mxGeometry x="-2960" y="-970" width="250" height="56" as="geometry" />
        </mxCell>
        <mxCell id="rcXhQWYuo-V88qk7l1yH-7" value="ecos_df : pd.DataFrame" style="swimlane;fontStyle=0;childLayout=stackLayout;horizontal=1;startSize=26;horizontalStack=0;resizeParent=1;resizeParentMax=0;resizeLast=0;collapsible=1;marginBottom=0;align=center;fontSize=14;" vertex="1" parent="1">
          <mxGeometry x="-2945" y="-1050" width="220" height="56" as="geometry" />
        </mxCell>
        <mxCell id="rcXhQWYuo-V88qk7l1yH-8" value="" style="endArrow=classic;html=1;rounded=0;" edge="1" parent="1" source="rcXhQWYuo-V88qk7l1yH-6" target="rcXhQWYuo-V88qk7l1yH-7">
          <mxGeometry width="50" height="50" relative="1" as="geometry">
            <mxPoint x="-3060" y="-710" as="sourcePoint" />
            <mxPoint x="-3010" y="-760" as="targetPoint" />
          </mxGeometry>
        </mxCell>
        <mxCell id="rcXhQWYuo-V88qk7l1yH-9" value="" style="endArrow=classic;html=1;rounded=0;" edge="1" parent="1" source="rcXhQWYuo-V88qk7l1yH-3" target="rcXhQWYuo-V88qk7l1yH-6">
          <mxGeometry width="50" height="50" relative="1" as="geometry">
            <mxPoint x="-2920" y="-730" as="sourcePoint" />
            <mxPoint x="-2870" y="-780" as="targetPoint" />
            <Array as="points">
              <mxPoint x="-2835" y="-600" />
            </Array>
          </mxGeometry>
        </mxCell>
        <mxCell id="rcXhQWYuo-V88qk7l1yH-10" value="gt_command : GtCommandSubject" style="swimlane;fontStyle=0;childLayout=stackLayout;horizontal=1;startSize=26;horizontalStack=0;resizeParent=1;resizeParentMax=0;resizeLast=0;collapsible=1;marginBottom=0;align=center;fontSize=14;" vertex="1" parent="1">
          <mxGeometry x="-3130" y="-870" width="260" height="56" as="geometry" />
        </mxCell>
        <mxCell id="rcXhQWYuo-V88qk7l1yH-11" value="TsHitObserver" style="swimlane;fontStyle=0;childLayout=stackLayout;horizontal=1;startSize=26;horizontalStack=0;resizeParent=1;resizeParentMax=0;resizeLast=0;collapsible=1;marginBottom=0;align=center;fontSize=14;" vertex="1" parent="1">
          <mxGeometry x="-3085" y="-780" width="170" height="56" as="geometry" />
        </mxCell>
        <mxCell id="rcXhQWYuo-V88qk7l1yH-12" value="" style="endArrow=classic;startArrow=classic;html=1;rounded=0;" edge="1" parent="1" source="rcXhQWYuo-V88qk7l1yH-11" target="rcXhQWYuo-V88qk7l1yH-10">
          <mxGeometry width="50" height="50" relative="1" as="geometry">
            <mxPoint x="-3030" y="-720" as="sourcePoint" />
            <mxPoint x="-2980" y="-770" as="targetPoint" />
          </mxGeometry>
        </mxCell>
        <mxCell id="rcXhQWYuo-V88qk7l1yH-13" value="" style="endArrow=classic;html=1;rounded=0;" edge="1" parent="1" source="rcXhQWYuo-V88qk7l1yH-1" target="rcXhQWYuo-V88qk7l1yH-10">
          <mxGeometry width="50" height="50" relative="1" as="geometry">
            <mxPoint x="-3060" y="-860" as="sourcePoint" />
            <mxPoint x="-3010" y="-910" as="targetPoint" />
          </mxGeometry>
        </mxCell>
        <mxCell id="rcXhQWYuo-V88qk7l1yH-14" value="" style="endArrow=classic;html=1;rounded=0;" edge="1" parent="1" source="rcXhQWYuo-V88qk7l1yH-11" target="rcXhQWYuo-V88qk7l1yH-6">
          <mxGeometry width="50" height="50" relative="1" as="geometry">
            <mxPoint x="-2860" y="-610" as="sourcePoint" />
            <mxPoint x="-2810" y="-660" as="targetPoint" />
            <Array as="points">
              <mxPoint x="-2835" y="-752" />
            </Array>
          </mxGeometry>
        </mxCell>
        <mxCell id="rcXhQWYuo-V88qk7l1yH-15" value="" style="endArrow=classic;html=1;rounded=0;" edge="1" parent="1" source="rcXhQWYuo-V88qk7l1yH-6" target="rcXhQWYuo-V88qk7l1yH-1">
          <mxGeometry width="50" height="50" relative="1" as="geometry">
            <mxPoint x="-3000" y="-910" as="sourcePoint" />
            <mxPoint x="-2950" y="-960" as="targetPoint" />
          </mxGeometry>
        </mxCell>
        <mxCell id="rcXhQWYuo-V88qk7l1yH-16" value="" style="endArrow=classic;html=1;rounded=0;" edge="1" parent="1" source="rcXhQWYuo-V88qk7l1yH-7" target="rcXhQWYuo-V88qk7l1yH-1">
          <mxGeometry width="50" height="50" relative="1" as="geometry">
            <mxPoint x="-2970" y="-1040" as="sourcePoint" />
            <mxPoint x="-3140" y="-967" as="targetPoint" />
            <Array as="points">
              <mxPoint x="-3150" y="-1022" />
            </Array>
          </mxGeometry>
        </mxCell>
        <mxCell id="rcXhQWYuo-V88qk7l1yH-17" value="net_maker : NetMaker" style="swimlane;fontStyle=0;childLayout=stackLayout;horizontal=1;startSize=26;horizontalStack=0;resizeParent=1;resizeParentMax=0;resizeLast=0;collapsible=1;marginBottom=0;align=center;fontSize=14;" vertex="1" parent="1">
          <mxGeometry x="-3360" y="-1070" width="160" height="56" as="geometry" />
        </mxCell>
        <mxCell id="rcXhQWYuo-V88qk7l1yH-18" value="" style="endArrow=classic;startArrow=classic;html=1;rounded=0;" edge="1" parent="1" source="rcXhQWYuo-V88qk7l1yH-1" target="rcXhQWYuo-V88qk7l1yH-17">
          <mxGeometry width="50" height="50" relative="1" as="geometry">
            <mxPoint x="-3320" y="-880" as="sourcePoint" />
            <mxPoint x="-3270" y="-930" as="targetPoint" />
          </mxGeometry>
        </mxCell>
        <mxCell id="rcXhQWYuo-V88qk7l1yH-19" value="graph_db : GraphDbApi" style="swimlane;fontStyle=0;childLayout=stackLayout;horizontal=1;startSize=26;horizontalStack=0;resizeParent=1;resizeParentMax=0;resizeLast=0;collapsible=1;marginBottom=0;align=center;fontSize=14;" vertex="1" parent="1">
          <mxGeometry x="-3360" y="-870" width="160" height="56" as="geometry" />
        </mxCell>
        <mxCell id="rcXhQWYuo-V88qk7l1yH-20" value="" style="endArrow=classic;startArrow=classic;html=1;rounded=0;" edge="1" parent="1" source="rcXhQWYuo-V88qk7l1yH-19" target="rcXhQWYuo-V88qk7l1yH-1">
          <mxGeometry width="50" height="50" relative="1" as="geometry">
            <mxPoint x="-3280" y="-730" as="sourcePoint" />
            <mxPoint x="-3230" y="-780" as="targetPoint" />
          </mxGeometry>
        </mxCell>
      </root>
    </mxGraphModel>
  </diagram>
</mxfile>
